# xmcd CD database file
#
# Track frame offsets:
#	150
#	25845
#	48675
#	73555
#	99787
#	116067
#	138997
#	160477
#	191600
#	216420
#	245312
#	274160
#
# Disc length: 4000 seconds
#
# Revision: 7
# Processed by: cddbd v1.5.2PL0 Copyright (c) Steve Scherf et al.
# Submitted via: CDex 1.51
#
DISCID=af0f9e0c
DTITLE=Dr. John - Duke Elegant
DYEAR=1999
DGENRE=Blues
TTITLE0=On The Wrong Side Of The Railroad Tracks
TTITLE1=I'm Gonna Go Fishin'
TTITLE2=It Don't Mean A Thing (If It Ain't Got That Swing)
TTITLE3=Perdido
TTITLE4=Don't Get Around Much Anymore
TTITLE5=Solitude
TTITLE6=Satin Doll
TTITLE7=Mood Indigo
TTITLE8=Do Nothin' 'til You Hear From Me
TTITLE9=Thing's Ain't What They Used To Be
TTITLE10=Caravan
TTITLE11=Flaming Sword
EXTD=YEAR: 1999
EXTT0=
EXTT1=
EXTT2=
EXTT3=
EXTT4=
EXTT5=
EXTT6=
EXTT7=
EXTT8=
EXTT9=
EXTT10=
EXTT11=
PLAYORDER=
